<svg xmlns="http://www.w3.org/2000/svg" xmlns:xlink="http://www.w3.org/1999/xlink" width="854" height="256" viewBox="0 0 854 256">
  <defs>
    <clipPath id="clip-Banner">
      <rect width="854" height="256"/>
    </clipPath>
  </defs>
  <g id="Banner" clip-path="url(#clip-Banner)">
    <g id="Group_31" data-name="Group 31">
      <rect id="Rectangle_26" data-name="Rectangle 26" width="854" height="256" rx="8" fill="#151515"/>
      <g id="Introduction" transform="translate(657.342 37.664)">
        <g id="variations" transform="translate(-35 -19)">
          <g id="images">
            <g id="a-person_bust" data-name="a-person/bust">
              <g id="body_Button-Shirt-1" data-name="body/Button-Shirt-1" transform="translate(0 81.625)">
                <path id="_-Background" data-name="ðŸŽ¨-Background" d="M164.276,155.086c-28.317,4.3-57.147,4.519-85.7,2.957a199.313,199.313,0,0,0-33.925.083c-6.672.5-35.924,2.733-38.314-3.245,1.5-31.832,4.551-63.935,13.9-94.549,3.844-10.87,7.145-19.893,14.646-28.888,2.364-2.456,7.463-7.607,10.384-9.287,2.531-1.455,3.589-.936,5.042-3.394,1.444-2.715,2.509-7.25,4.56-9.166,2.088-1.951,5.182-1.253,9.018-.625-.7-9.525,3.691-11.951,9.746-13.763C84.274-8.853,94.786-6.812,97.465,6.15c4.967,0,7.757,2.138,10.773,4.193,1.233.84.375,2.98,1.848,3.64,2.725.971,7.54.733,10.164,1.927,11.93,5.432,22.556,13.308,29.535,24.811,15.645,24.559,26.391,76.294,24.532,105.4.815,1.278-.312,3.111-.6,4.486a2.616,2.616,0,0,1-2.754,1.855C169.259,154.3,166.622,154.707,164.276,155.086Z" transform="translate(-4.249 6.669)" fill="#eee" fill-rule="evenodd"/>
                <path id="_-Ink" data-name="ðŸ–-Ink" d="M47.89,21.238c.174-.1.021-.345-.154-.263-8.4,3.941-14.84,10.856-19.373,18.845-4.694,8.272-7.369,17.665-9.676,26.844L18.6,67c-2.459,9.82-4.551,19.742-6.433,29.688C10.264,106.755,8.733,116.89,7.5,127.066c-.609,5.032-1.152,10.072-1.576,15.123q-.317,3.786-.577,7.577-.1,1.516-.19,3.033l-.04.759a6.938,6.938,0,0,0,.054,2.057,8.116,8.116,0,0,0,.729,1.652,1.518,1.518,0,0,0,2.6,0l.169-.258a4.774,4.774,0,0,0,.826-1.89c.117-.717.121-1.469.174-2.194.1-1.333.179-2.668.272-4q.295-4.211.662-8.417c.484-5.535,1-11.065,1.639-16.584q1.7-14.714,4.227-29.324c1.636-9.506,3.7-18.916,5.862-28.314l.224-.972C26.331,48.9,32.153,30.006,47.89,21.238Zm89.448,64.252c-.062-.164-.327-.2-.372,0a42.24,42.24,0,0,0-.708,7.781c-.085,2.573-.082,5.158-.044,7.733.138,9.463.4,18.918.622,28.38q.168,7.1.3,14.2.046,2.663.078,5.326l.026,2.342a28.282,28.282,0,0,0,.166,3.092,4.453,4.453,0,0,0,.636,1.912,3.706,3.706,0,0,0,1.016.905l.069.054a1.059,1.059,0,0,0,1.437,0l.136-.107a3.458,3.458,0,0,0,1.118-1.175,6.248,6.248,0,0,0,.528-2.449c.1-1.284.034-2.586.021-3.873q-.04-3.874-.107-7.747c-.166-9.469-.495-18.94-1.094-28.392-.282-4.452-.665-8.919-1.178-13.353l-.1-.831c-.156-1.3-.3-2.633-.458-3.965a29.183,29.183,0,0,0,6.277-6.032c.132-.17-.085-.409-.244-.244a23.428,23.428,0,0,1-6.247,4.592A37.44,37.44,0,0,0,137.338,85.489ZM97.445,1.08a.083.083,0,0,0-.115,0A3.537,3.537,0,0,0,96.9,3.353l0,.071c-.037,1.109-.044,2.215-.04,3.324l.011,3.532h0c0,.486.041.991.016,1.48l-.013.189h0a1.164,1.164,0,0,0-.3,1.076,1.523,1.523,0,0,0,.677,1.213l-.84,1.193h0l-.841,1.192c-1.734,2.46-3.487,4.9-5.313,7.29-1.863,2.439-3.85,4.786-5.929,7.043Q82.8,32.611,81.22,34.21c-.43.432-.87.853-1.306,1.28l-.433.428a3.83,3.83,0,0,0-.748.834,4.84,4.84,0,0,0-.158.741c-.321.705.227,1.83,1.136,1.478l-.041-.027q-.248-.173.318,0a1.443,1.443,0,0,0,.671-.164l.062-.034a3.693,3.693,0,0,0,.8-.67l.059-.057c.546-.512,1.067-1.055,1.591-1.591q1.64-1.675,3.2-3.429,3.1-3.505,5.872-7.276a67.674,67.674,0,0,0,5.149-8.033c.572-1.061,1.1-2.142,1.6-3.236.979-.314,1.207-1.356,1.138-2.53A14.463,14.463,0,0,0,101,9.34c.026-.12-.128-.234-.221-.129-.313.356-.6.735-.882,1.124-.168-.823-.381-1.58-.481-2.063l-.434-2.131h0A9.127,9.127,0,0,1,105.8,8.78a3.086,3.086,0,0,0,.787,1.215,7.442,7.442,0,0,1,.991,1.614c.567,1.274.247,3.152,1.347,4.086a1.081,1.081,0,0,0,.375.207,39.862,39.862,0,0,0-.274,7.979v.229c0,2.907.095,5.816.207,8.721l.114,2.875a84.519,84.519,0,0,1-.128,11.483q-2.551-2.26-5.277-4.314-1.794-1.351-3.658-2.606l-1.009-.675A24.965,24.965,0,0,0,95.5,37.367a5.828,5.828,0,0,0-5.051.281c-1.665.776-3.28,1.677-4.914,2.518q-2.492,1.283-4.989,2.553c-1.1.563-2.717,1.072-3.525,2.109-.052-.229-.112-.458-.182-.686a1.512,1.512,0,0,0-.146-1.081c-2.716-4.992-5.229-10.1-7.724-15.208-1.263-2.584-2.464-5.2-3.729-7.78l-1.23-2.515q-.308-.628-.619-1.255c-.31-.626-.634-1.245-.947-1.87-.133-.264-.3-.526-.428-.792l-.061-.133c0-.007-.3-.945-.071-.855l.02.01c.117.067.212-.081.135-.176-.326-.4-.779-.046-.965.327-.512,1.026.426,2.636.787,3.618l.02.055c1.12,3.17,2.387,6.28,3.686,9.38,2.49,5.943,5.165,11.794,7.834,17.656l.032.1h0c-.569-.436-1.177-.833-1.7-1.218-1.313-.973-2.664-1.9-4.013-2.82-2.474-1.691-5.015-3.27-7.6-4.787l-.517-.3a6.182,6.182,0,0,0-4.1-1.136,14.55,14.55,0,0,0-4.031,1.6l-.133.064-3.972,1.889c.425-1.694.884-3.38,1.364-5.059q1.4-4.913,3.081-9.743,1.564-4.511,3.362-8.934l.359-.886c.486-1.215.969-2.54,2.358-2.914s2.981.181,4.25-.611a.165.165,0,0,0-.039-.3l-.783-.2a10.023,10.023,0,0,0-4.583-.378,6.018,6.018,0,0,0-3.5,2.978,39.475,39.475,0,0,0-2.011,4.678l-.1.247q-1.066,2.659-2.048,5.35-1.962,5.38-3.576,10.878-.779,2.647-1.486,5.316c-.136.511-.361,1.131-.545,1.778a5.179,5.179,0,0,0-.6.7.85.85,0,0,0,.3,1.205,2.321,2.321,0,0,0,.35,1.222c.922,1.4,3.36,1.04,3.261-.843a1.491,1.491,0,0,0-.3-.8l0-.038h0l.019-.069h0c.423-.2.848-.429,1.3-.65l4.168-2.061h0a15.5,15.5,0,0,1,3.888-1.747c1.252-.212,2.572.721,3.648,1.284l.07.036c2.6,1.333,5.18,2.71,7.751,4.1,1.255.678,2.493,1.384,3.743,2.07a16.826,16.826,0,0,0,3.348,1.721,1.34,1.34,0,0,0,1.577.043,37.338,37.338,0,0,0-.273,4.135c-.09,1.854-.1,3.713-.134,5.569l-.012.7Q75.47,61.843,75.452,68c-.055,14.616.106,29.237.144,43.853.019,7.344.165,14.693.355,22.034.081,3.111.25,6.217.432,9.323l.1,1.694a85.6,85.6,0,0,0,1,10.715.491.491,0,0,0,.941,0,89.217,89.217,0,0,0,.76-11.463l.025-.764q.211-6.157.193-12.313c-.052-14.622-.432-29.235-.743-43.853-.156-7.344-.261-14.692-.5-22.034q-.182-5.511-.422-11.017c-.073-1.64-.143-3.278-.252-4.915l-.049-.7c-.034-.458-.061-.91-.094-1.358,1.479.54,2.831-.46,4.162-1.145q2.3-1.184,4.6-2.367l1.535-.786h0l3.072-1.568c1.383-.706,2.449-1.409,3.924-.581a76.354,76.354,0,0,1,14.626,11.118c.849.8,2.642.584,2.857-.755.918-5.719.36-11.521-.109-17.257l-.173-2.13c-.209-2.544-.438-5.087-.742-7.621-.136-1.133-.271-2.266-.421-3.4l-.115-.848a24.739,24.739,0,0,0-.709-3.959.923.923,0,0,0,.355-.21c1.2-1.139.622-3.116.074-4.471a10.252,10.252,0,0,0-2.4-3.51,1.306,1.306,0,0,0-.862-.368c-2.5-1.66-5.251-2.488-8.11-1.582-.08-.384-.162-.768-.248-1.15l-.088-.382C98.346,3.283,98.264,1.715,97.445,1.08ZM71.781,150.957a2.259,2.259,0,0,0-2.2,3.776,2.253,2.253,0,0,0,.915.557l.081.024.127.053a2.2,2.2,0,0,0,2.7-2.7l-.053-.127h0a2.263,2.263,0,0,0-1.577-1.578ZM25.643,73.5c-.128-.147-.335.041-.255.2,1.21,2.374,2.559,4.73,3.885,7.044-.106.641-.212,1.277-.333,1.9-.517,2.642-1.149,5.237-1.562,7.9-1.483,9.588-2.252,19.28-2.913,28.954-.662,9.709-.747,19.422-.847,29.15a2.067,2.067,0,0,0,1.508,1.982,3.056,3.056,0,0,0,1.092,0,2.086,2.086,0,0,0,1.508-1.982c.259-5.437.608-10.867,1.012-16.295.716-9.624,1.154-19.273,1.732-28.907l.2-3.367c.219-3.648.419-7.3.484-10.953.043-2.421-.086-4.841-.006-7.259a27.766,27.766,0,0,0-.192-6.853.1.1,0,0,0-.186-.024,15.288,15.288,0,0,0-1.085,3.443C28.372,76.762,27.029,75.09,25.643,73.5Zm86.351-58.966c-.185-.013-.178.265,0,.286a33.777,33.777,0,0,1,7.529,2.249l.209.076a54.575,54.575,0,0,1,7.189,3.179,55.143,55.143,0,0,1,12.36,9.141c14.675,14.3,21.362,34.933,26.263,54.318a247.888,247.888,0,0,1,5.914,32.759q.931,8.187,1.315,16.424.2,4.218.248,8.442.027,2.163.021,4.326a8.571,8.571,0,0,0,.058,2.134,5.831,5.831,0,0,0,.968,1.613.909.909,0,0,0,1.544,0l.151-.2a3.655,3.655,0,0,0,.929-1.9c.067-.814.02-1.654.023-2.472.007-1.648-.013-3.3-.046-4.944q-.1-4.738-.373-9.469-.563-9.6-1.878-19.136A251.569,251.569,0,0,0,167.4,77.925c-2.913-10.347-6.364-20.663-11.28-30.248-4.565-8.9-10.553-17.177-18.455-23.4a51.985,51.985,0,0,0-11.987-7.117,32.932,32.932,0,0,0-6.782-2.089A66.408,66.408,0,0,0,111.993,14.531ZM71.336,132.668a2.273,2.273,0,0,0-1.22.314l-.47.364h0q-.191.246-.381.493a2.1,2.1,0,0,0-.272,1.461,1.706,1.706,0,0,0,.272.852l.358.464h0a3.064,3.064,0,0,0,1.048.616,1.736,1.736,0,0,0,.637.075l.07,0-.042.006.073-.008h0c.068-.006.136-.013.2-.023.047-.006.093-.009.14-.016a.765.765,0,0,1,.134,0,1.986,1.986,0,0,0,1.438-.6,2.018,2.018,0,0,0,.6-1.439l-.02-.2a2.235,2.235,0,0,0-.2-.791,2.42,2.42,0,0,0-.583-.847A2.592,2.592,0,0,0,71.336,132.668Zm1.64-24.13a2.346,2.346,0,0,0-2.783-.359,4.046,4.046,0,0,0-.595.446,2.271,2.271,0,0,0-.683,1.65,2.363,2.363,0,0,0,.683,1.651l.1.1h0a1.914,1.914,0,0,0,.931.5,2.49,2.49,0,0,0,1.519-.118,2.327,2.327,0,0,0,1.074-.886l.042-.068q.026-.043.05-.087l.023-.045A2.388,2.388,0,0,0,72.976,108.539Zm-.364-24.257a1.8,1.8,0,0,0-.951-.043,2.357,2.357,0,0,0-1.556.9,1.8,1.8,0,0,0-.427.811l-.085.634.085.634.241.57h0q.1.129.2.258a2.666,2.666,0,0,0,.829.693,2.237,2.237,0,0,0,1.868.332,2.209,2.209,0,0,0,1.54-1.541l.043-.3a2.62,2.62,0,0,0-.049-1.131,3.02,3.02,0,0,0-.269-.672A2.5,2.5,0,0,0,72.611,84.282ZM45.078,66.831q-1.366-.01-2.731.005l-.683.009c-1.143.018-2.123-.1-3.021.694a1.274,1.274,0,0,0,.254,1.976c.938.657,2.115.327,3.194.254q1.706-.114,3.415-.191c2.2-.1,4.411-.162,6.618-.171s4.408.011,6.61.047a57.506,57.506,0,0,0,6.8.013.276.276,0,0,0,.073-.539,33.381,33.381,0,0,0-6.662-1.24c-2.27-.287-4.539-.49-6.823-.621C49.777,66.933,47.427,66.848,45.078,66.831Zm27.538-7.137h-.075a2.358,2.358,0,0,0-1.126.283l-.075.042-.481.372a2.377,2.377,0,0,0-.611,1.05l-.085.632h0a2.46,2.46,0,0,0,2.3,2.38h.075a2.367,2.367,0,0,0,1.2-.325l.481-.372h0a2.375,2.375,0,0,0,.611-1.049l.085-.632h0a2.46,2.46,0,0,0-2.3-2.38ZM65.567,3.824a.722.722,0,0,0-1.308.515,23.731,23.731,0,0,1-.5,4.944A9.52,9.52,0,0,1,63,11.475l-.148.29a2.547,2.547,0,0,0-.2,2.743,1.6,1.6,0,0,0,1.381.793c2.517-.109,2.863-3.614,3.016-5.571A9.368,9.368,0,0,0,65.567,3.824Z" transform="translate(-5.07 6.869)" fill-rule="evenodd"/>
              </g>
              <g id="head_hat-beanie" data-name="head/hat-beanie" transform="translate(35.724)">
                <path id="Path" d="M35.5,12.408c-9.7,0-21.347,4.706-22.337,4.8h-.027q-.781,0-6.105,4.653l3.844,7.5-.311.3C9.077,31.089,7.806,32.39,6.8,33.416-1.389,41.793-2.861,74.684-.93,86.154s5.506,22.694,22.152,22.694S56.386,98.835,59.238,95.717a8.1,8.1,0,0,1,6.409-2.988l.29-.368.349-.049a21.584,21.584,0,0,0,7.052-1.919c2.775-1.571,5.825-9.827,5.825-11.646,0-1.8,4.554-14.9,4.646-16.286v-.038c0-1.159,5.95-6.486,5.95-8.178s1.2-1.589,0-7.551l-.348-1.751c-1.276-6.347-3.774-16.857-13.3-21.424C65.647,18.5,45.3,12.408,35.5,12.408Z" transform="translate(3.808 -10.737)" fill="#eee" fill-rule="evenodd"/>
                <path id="_-Ink-2" data-name="ðŸ–-Ink" d="M78.367,23.325c-5.22-5.543-34.854-14.116-49.846-12.3l-.45.058a26.509,26.509,0,0,0-3.539.694,30.518,30.518,0,0,0-10.755,4.432C11.183,18.03,3,21,5.41,25.756a7.046,7.046,0,0,0-.624,5.46,6.546,6.546,0,0,0,.481,1.659A48.842,48.842,0,0,0,.618,41.921,96.282,96.282,0,0,0-3.049,65.3c-.649,14.8.974,32.486,13.862,42.059,7.786,6.066,19.982,6.27,28.731-1.251.5-.588,2.832-2.174,2.052-2.452q-.348.368-.713.718a.141.141,0,0,0,.009-.08l.228-.207c.43-.4.987-.975.353-.862-.028.033-.059.061-.089.093a3.127,3.127,0,0,0-.315.212l-.041.033.013-.013c.365-.39.585-.787.038-.534l-.072.035c-.243.256-.49.5-.741.739a.141.141,0,0,0-.015-.087l.234-.227c.229-.224.194-.225.082-.407.486-.682-.422-.277-.485-.011-.568-.134-1.067.932-1.433,1.062C22.61,116.454-.666,105.508-.289,71.135l.006-.673C-.173,59.472.751,48.175,5.3,38.226a28.627,28.627,0,0,1,1.48-2.793q.562-1.015,1.207-1.977a17.881,17.881,0,0,0,3.574-.661c.4-.1.8-.215,1.2-.347,5.826.318,11.522.664,17.365.992l1.825.114c4.949.318,10.068.828,14.061,3.89,3.919,2.788,3.937,8.286,7.291,11.347,4.784,3.248,4.818,6.177,5.74,10.963-.068,3.608-2.569,8.85,2.02,10.369-.774,1.1.3.574.39.186a.111.111,0,0,0,.024,0c-.69,1.283.324.475.414.063a.4.4,0,0,0,.163-.108c-.7,1.124.429.337.362.132,1.343-2.065,4.108-2.386,6.056-1.839a.1.1,0,0,0,.165.041c8.286,1.8,6.148,18.955-2.343,17.3-.363-.074-.355.1-.427.117.2-.515-.357-.306-.351-.2l-.034,0c-.027,0-.016-.005-.036,0,.19-1.054-.878.473-.793.536a.273.273,0,0,0-.1-.035l.037-.1c.177-.472.162-.276.161-.546.133-.334.143-.188.112-.406-.468-.363-.606.737-.762.818.267-.373.055-.678-.2-.475a35.422,35.422,0,0,1-7.575,10.783c-.349.275-.7.546-1.069.8-1.358,1.183-3.441,1.944-4.712,2.992a.129.129,0,0,0,.021.061l-.029.026h0l-.029.028-.442.212a2.359,2.359,0,0,0-.351.371,2.443,2.443,0,0,0-.291.418c-.041.182.05.258.223.18.076-.026.152-.056.228-.085a.081.081,0,0,1-.011.015c-.025.038-.193.428,0,.365l.023-.009c.106-.039.212-.082.316-.124-.124.154-.236.321-.336.462a.733.733,0,0,0-.2.388c0,.082.05.117.132.106.126-.041.249-.085.373-.13l-.035.067c-.087.172-.212.461.009.364.189-.059.371-.126.553-.2.015.03.046.041.106.013a11.156,11.156,0,0,0,1.673-.755c.47-.343.945-.679,1.418-1.019a10.886,10.886,0,0,0,1.283-.9,27.95,27.95,0,0,0,7.044-6.527c3.184,2.758,9.549.123,13.487-2.036,3.483-1.93,4.852-5.5,5.206-9.345.736-5.179,4.967-6.952,4.672-18.316a.068.068,0,0,0,.022,0,3.064,3.064,0,0,0,.854-.436l.158-.219h0a1.344,1.344,0,0,0,.212-.141l.029.038c.093.112.03-.056.025-.09l.275-.374c.652-.89,1.367-1.889,1.949-2.688l.018.032c.013.025.02.042.014.05A17.173,17.173,0,0,0,92.2,53.27a11.835,11.835,0,0,0-.112-5.306C90.486,42.143,85.246,28.971,78.367,23.325Zm-37.616,80.5.087-.077-.076.1a.646.646,0,0,1-.148.139.12.12,0,0,0,0-.048C40.661,103.9,40.706,103.863,40.751,103.824ZM28.587,13.952c10.167-.874,20.167,1.366,29.869,4.079l.669.192c5.517,1.575,11.35,2.992,16.012,6.362,6.513,4.991,9.877,12.93,12.812,20.261a13.521,13.521,0,0,1-2.61,15.391A62.36,62.36,0,0,0,83.182,49.15c-.223-.569-.054-.755-.536-.829C81.919,58.127,85.5,65.373,78.412,77c-3.076,5.484.485,9.5-8.2,12.383l-.235.09a10.247,10.247,0,0,1-5.559.841l.159-.258c.162-.266.211-.4-.024-.509.006-.013.015-.026.024-.041q.286-.54.551-1.093c.071.024.143.041.217.061-.048.089-.054.178.08.208a3.776,3.776,0,0,0,1.47.2L67,88.867a4.963,4.963,0,0,0,1.244-.234c.106-.017.212-.035.316-.056a7.328,7.328,0,0,0,2.822-1.383c8.032-4.564,7.2-20.1-2.7-21.568-.2-9.782-4.854-26.284-12.572-35.605C49.134,21.446,30.088,17.73,16.837,19.04l-.579.194c-2.044.182-3.993,1.093-6.039,1.516a18.423,18.423,0,0,1,4.852-2.458A35.029,35.029,0,0,1,26.2,14.268,10.951,10.951,0,0,1,28.587,13.952ZM69.136,73.482c-.532-.289-.471-.01-.594-.091-3.829-.312-7.958,3.041-10.1,5.837.169.176.626-.345.707-.427a.1.1,0,0,0,.037.024l-.06.084c-.868,1.245.852-.22,1.013-.522a.128.128,0,0,0,.089.017c-.136.134-.553.483-.624.731l-.11.092c-1.041.892-.955,1.562.227.3a.189.189,0,0,0-.019.156l-.041.027c-.581.406-1.059,1.539.156.376-.126.849,1.2-.792,1.246-.781,2.3-1.807,5.69-3.565,8.577-3.8l.1-.011c.53-.068.78-.225.594-.572.652-.155.5-.477.191-.466.46-.3.046-.592-.221-.479.184-.508-.553-.17-.62-.241C69.3,73.142,69.2,73.634,69.136,73.482Zm8.026-31.516c-1.839-.674-7.271,1.343-6.837,4.015a1.274,1.274,0,0,0,1.711.619l.782-.526c1.361-.912,2.589-1.712,4.05-2.507C77.664,43.173,78.006,42.334,77.162,41.966ZM66.7,38l.71-.462c3.833-2.51,9.251-6.312-.358-2.378-1.1.47-2.55.748-3.148,1.791C62.964,38.87,65.435,39,66.7,38Zm-.431-11.26c.308-1.168-3.52.2-4.634.564l-.17.064a5.917,5.917,0,0,0-2.974,1.714c-.759,1.293.778,1.561,1.73.977C62.172,28.779,64.313,27.816,66.268,26.736ZM56.536,21.3c2.154-2.353-3.611-.1-4.475.527l-.025.018a1.02,1.02,0,0,0,.092,1.718C53.851,23.593,55.118,22.157,56.536,21.3Zm-9.8-2.578c3.425-2.462-1.087-1.291-2.653-.326C43.012,19.334,44.112,20.925,46.733,18.718Z" transform="translate(3.169 -10.779)" fill-rule="evenodd"/>
              </g>
              <g id="face_Happy-Grin" data-name="face/Happy-Grin" transform="translate(40.45 43.366)">
                <path id="_-Ink-3" data-name="ðŸ–-Ink" d="M43.51,40.078c-3.715-.451-7.317.687-10.949,1.26a51.242,51.242,0,0,1-5.779.613c-.39.017-.781.027-1.172.035a1.026,1.026,0,0,0-.646-.849,5.017,5.017,0,0,0-2.477-.525,18.281,18.281,0,0,0-2.567.277,8.018,8.018,0,0,0-4.2,2.032c-2.6,2.57-2.2,6.7-.2,9.5C19.674,58.2,27.25,58.471,33.739,58.4l.6-.008c5.908-.084,14.361.8,17.046-5.928a9.449,9.449,0,0,0-.359-7.711C49.584,41.92,46.549,40.447,43.51,40.078ZM25.054,49.709l.053,0q4.086.157,8.173.227c-.082.7-.165,1.4-.26,2.1q-.112.825-.238,1.648a3.287,3.287,0,0,0-.128.823l.013.091h0a.83.83,0,0,0-.361.313,1.239,1.239,0,0,0-.08.154,36.143,36.143,0,0,1-6.55-.409l0-.047h0a.894.894,0,0,0-.306-.589,26.267,26.267,0,0,1-.2-2.688C25.132,50.792,25.093,50.25,25.054,49.709Zm10.308.266c1.963.033,3.928.059,5.891.035L42.144,50h0c-.188,1.01-.393,2.017-.563,3.033a1.494,1.494,0,0,0,1.562,1.706c-.091.015-.181.03-.272.043a54.908,54.908,0,0,1-7.7.259,17.014,17.014,0,0,0,.1-2.382l0-.1Q35.339,51.263,35.362,49.975ZM48.7,49.79a5.984,5.984,0,0,1-.4,1.518c-.838,2.022-2.76,2.965-4.793,3.363a1.057,1.057,0,0,0,.7-.916,27.782,27.782,0,0,0,.244-3.78C45.872,49.96,47.3,49.93,48.7,49.79Zm-31.033-.432a17.557,17.557,0,0,0,3.171.174c.927.042,1.855.079,2.782.116-.044.633-.086,1.266-.133,1.9a21.652,21.652,0,0,1-.222,2.5,9.869,9.869,0,0,1-4.793-3.293A6.33,6.33,0,0,1,17.666,49.358Zm26.271-5.963a6.118,6.118,0,0,1,4.123,2.775,5.854,5.854,0,0,1,.687,3.059c-1.419-.165-2.863-.228-4.3-.28q-.007-.388-.019-.775l-.022-.661A15.642,15.642,0,0,0,43.936,43.395Zm-8.691.154.739-.083a33.951,33.951,0,0,1,6.159-.339c.3.021.6.053.9.1a27.91,27.91,0,0,0-.484,4.146c-.059.5-.133,1-.215,1.494l-.356-.017h0c-2.2-.119-4.409-.193-6.614-.28q0-.621-.009-1.243l-.008-.415A28.971,28.971,0,0,0,35.245,43.549Zm-10.31-.168a41.3,41.3,0,0,0,6.485.424c.844,0,1.687-.051,2.53-.126-.055.449-.083.9-.125,1.346q-.125,1.342-.282,2.68l-.092.781h0q-4.065-.184-8.13-.393l-.382-.021h0l-.107-1.5c-.073-1-.153-2-.267-3l.085-.031h0A1.4,1.4,0,0,0,24.934,43.381ZM24,43.753c-.119,1.415-.184,2.836-.271,4.253l-1.786-.1-.893-.05a12.245,12.245,0,0,0-3.789-.09,2.953,2.953,0,0,1,1.149-2.754C20.058,43.788,22.157,44.226,24,43.753ZM30.1,31.1c-2.66-1.524-9.334-3.081-9.756,1.707A5.061,5.061,0,0,0,23.7,37.656l.072.03c1.794.738,4.973,1.571,6.525-.029,1.292-1.331-.422-3.718-2.027-2.628-.825.56-2.561.147-3.482-.119l-.058-.017c-.993-.292-2.318-1.227-1.907-2.45.363-1.082,1.91-1.28,2.879-1.315a38.225,38.225,0,0,1,4.286.393A.225.225,0,0,0,30.1,31.1ZM19.085,23.4c-3.61-.169-5.856,3.774-5.026,7.005a1.424,1.424,0,0,0,1.369,1.042l.152-.014a1.338,1.338,0,0,0,.226-.037,1.433,1.433,0,0,0,1.042-1.369l-.011-.18c-.084-1.526.081-3.285,1.894-3.654,1.538-.314,2.4,1.167,2.415,2.53a.328.328,0,0,0,.489.281,2.559,2.559,0,0,0,.88-3.182A3.736,3.736,0,0,0,19.085,23.4Zm26.79.846A5.778,5.778,0,0,0,39.142,27.1a.994.994,0,0,0-.83,1,2.8,2.8,0,0,0,.75,1.811,1.639,1.639,0,0,0,2.7-.667l.014-.05a2.7,2.7,0,0,1,3.4-1.874c1.675.585,1.627,2.355,2.8,3.386a.406.406,0,0,0,.469.06c1.248-.6,1.024-2.42.579-3.459A5.462,5.462,0,0,0,45.875,24.25Zm3.578-7.981c-2.129-2.173-7.68-4.276-9.136-.263a1.6,1.6,0,0,0,1.109,1.953c1.3.259,2.458-.306,3.752-.2a5.65,5.65,0,0,1,2.978,1.082c2.32,1.8,2.83,4.839,4.446,7.127a.133.133,0,0,0,.246-.067A12.673,12.673,0,0,0,49.453,16.269ZM21.689,14.13a7.13,7.13,0,0,0-4.433-.014,8.611,8.611,0,0,0-3.756,2.4,9.561,9.561,0,0,0-1.225,1.648c-.181.313-.371.959-.577,1.344a2,2,0,0,0-.592,3.15l.045.046.133.132a2.143,2.143,0,0,0,2.074.548c1.636-.474,1.835-1.763,2.4-3.131a5.6,5.6,0,0,1,1.792-2.291,8.613,8.613,0,0,1,7.059-1.176c.118.035.256-.115.172-.224a6.709,6.709,0,0,0-1.221-1.427A6.524,6.524,0,0,0,21.689,14.13Z" transform="translate(-10.563 -13.738)" fill-rule="evenodd"/>
              </g>
              <g id="accessories_Glasses" data-name="accessories/Glasses" transform="translate(26.388 43.366)">
                <path id="_-Ink-4" data-name="ðŸ–-Ink" d="M6.761,13.667C8.827,27.65,23.253,29.2,25.816,15.314a1.084,1.084,0,0,1-.645-1.224c.015-3.025-.924-6.223-3.652-7.9C18.7,4.45,15.4,4.278,12.138,4.322c-6.225-.148-6.094,5.057-5.377,9.345M28.074,7.585C30.028,7.5,32.5,7.572,34.25,8.763a7.392,7.392,0,0,1,2.995-3.42,137.567,137.567,0,0,1-14.258-.684,9.007,9.007,0,0,1,2.87,3.273,5.625,5.625,0,0,1,2.218-.347m8.612,7.564C42.1,33.8,55.626,25.673,57.1,23.283c2.659-3.956,3.16-13.574.843-16.145-3.316-2.325-8.01-1.727-11.927-1.784-7.2.1-12.307,2.251-9.331,9.8M.364,6.569a7.894,7.894,0,0,1,4.413.417A5.9,5.9,0,0,1,8.015,3.037c.181-.227.154-.349.771-.315,3.792-1.14,8.035-.537,11.679.632,5.755.485,11.793.867,17.6,1.535C43.5,2.448,59.9,2.09,60.924,8.11c1.282-.192,3.467-1.2,4.544.168,7.9-1.341,16.073.523,24.012,1.352,2,.368,3.028,4.336.759,4.282-1.275-.346.039-2.471-1.678-2.63-7.66-.837-15.152-2.024-22.891-2.163.269,1.337-5.118,1.424-5.2.643l-.035.015c1.331,4.963.13,12.106-2.276,15.184-3.371,4.03-11.834,5.186-15.586,2.593-4.841-2.393-9.876-14.406-8.462-18.4A16.591,16.591,0,0,0,26.344,9c.61,1.724,1.663,5.967.148,6.334.278,8.424-7.385,13.68-14.45,10.224C5.927,22.688,3.789,13.6,4.537,8.082,3.776,9.554-2.615,7.952.364,6.569" transform="translate(0.422 -2.113)" fill-rule="evenodd"/>
              </g>
            </g>
          </g>
        </g>
      </g>
      <g id="social" transform="translate(62.311 181.907)">
        <path id="logo" d="M6.046.5A5.993,5.993,0,0,0,0,6.441a5.951,5.951,0,0,0,4.134,5.636c.3.056.413-.128.413-.286,0-.141-.005-.515-.008-1.01-1.682.358-2.036-.8-2.036-.8a1.584,1.584,0,0,0-.673-.869c-.548-.368.042-.361.042-.361a1.265,1.265,0,0,1,.926.612,1.3,1.3,0,0,0,1.761.494,1.258,1.258,0,0,1,.383-.794C3.6,8.918,2.188,8.407,2.188,6.131a2.27,2.27,0,0,1,.622-1.594,2.079,2.079,0,0,1,.053-1.572s.506-.159,1.663.609a5.8,5.8,0,0,1,3.023,0C8.7,2.805,9.2,2.965,9.2,2.965a2.136,2.136,0,0,1,.06,1.572,2.279,2.279,0,0,1,.62,1.594c0,2.282-1.413,2.784-2.758,2.931a1.41,1.41,0,0,1,.408,1.1c0,.795-.008,1.434-.008,1.627,0,.156.106.342.416.282a5.933,5.933,0,0,0,4.149-5.629A5.994,5.994,0,0,0,6.046.5Z" transform="translate(1.065 34.502)" fill="#eee"/>
        <text id="_fayeed" data-name="@fayeed" transform="translate(16.041 45.093)" fill="#eee" font-size="10" font-family="OpenSans, Open Sans"><tspan x="0" y="0">@fayeed</tspan></text>
        <g id="twitter">
          <path id="twitter-2" data-name="twitter" d="M13.895,45.1a.3.3,0,0,0-.365-.064,2.6,2.6,0,0,1-.388.14,2.734,2.734,0,0,0,.462-.889.3.3,0,0,0-.468-.327,6.386,6.386,0,0,1-1.462.572,3.058,3.058,0,0,0-3.831-.3,3.015,3.015,0,0,0-1.312,2.786,7.194,7.194,0,0,1-5.038-2.714.314.314,0,0,0-.258-.114.3.3,0,0,0-.243.148A2.941,2.941,0,0,0,.656,46.63a3.251,3.251,0,0,0,.528,1.1,1.613,1.613,0,0,1-.309-.2.3.3,0,0,0-.5.236A3.142,3.142,0,0,0,2,50.47a2.253,2.253,0,0,1-.391-.084.3.3,0,0,0-.365.416,3.316,3.316,0,0,0,2.3,1.884,5.353,5.353,0,0,1-3.205.66.3.3,0,0,0-.324.208.3.3,0,0,0,.14.358,9.1,9.1,0,0,0,4.49,1.276,7.712,7.712,0,0,0,4.262-1.3,8.12,8.12,0,0,0,3.7-7.034,5.675,5.675,0,0,0,1.321-1.377A.3.3,0,0,0,13.895,45.1Z" transform="translate(78.689 -8.351)" fill="#eee"/>
          <text id="_fayeedP" data-name="@fayeedP" transform="translate(96.041 44.63)" fill="#eee" font-size="10" font-family="OpenSans, Open Sans"><tspan x="0" y="0">@fayeedP</tspan></text>
        </g>
        <g id="Group_28" data-name="Group 28" transform="translate(5)">
          <g id="mail" transform="translate(159.263 37.241)">
            <g id="Group_12" data-name="Group 12" transform="translate(7.76 1.484)">
              <g id="Group_11" data-name="Group 11">
                <path id="Path_29" data-name="Path 29" d="M339.392,147.5l3.946,2.495v-5.1Z" transform="translate(-339.392 -144.896)" fill="#eee"/>
              </g>
            </g>
            <g id="Group_14" data-name="Group 14" transform="translate(0 1.484)">
              <g id="Group_13" data-name="Group 13">
                <path id="Path_30" data-name="Path 30" d="M0,144.9v5.1L3.946,147.5Z" transform="translate(0 -144.896)" fill="#eee"/>
              </g>
            </g>
            <g id="Group_16" data-name="Group 16" transform="translate(0.022)">
              <g id="Group_15" data-name="Group 15">
                <path id="Path_31" data-name="Path 31" d="M11.912,80H1.67a.723.723,0,0,0-.71.623l5.831,3.842,5.831-3.842A.723.723,0,0,0,11.912,80Z" transform="translate(-0.96 -80)" fill="#eee"/>
              </g>
            </g>
            <g id="Group_18" data-name="Group 18" transform="translate(0.023 4.525)">
              <g id="Group_17" data-name="Group 17">
                <path id="Path_32" data-name="Path 32" d="M8.09,277.921l-1.035.682a.367.367,0,0,1-.4,0l-1.035-.683-4.593,2.905a.721.721,0,0,0,.708.617H11.975a.721.721,0,0,0,.708-.617Z" transform="translate(-1.024 -277.92)" fill="#eee"/>
              </g>
            </g>
          </g>
          <text id="fayeed_live.com" data-name="fayeed@live.com" transform="translate(175.041 45.187)" fill="#eee" font-size="10" font-family="OpenSans, Open Sans"><tspan x="0" y="0">fayeed@live.com</tspan></text>
        </g>
        <g id="Group_29" data-name="Group 29" transform="translate(9)">
          <g id="stack-overflow" transform="translate(272.078 -32.907)">
            <path id="Path_50" data-name="Path 50" d="M6.444,13.77l5.088,1.081.213-1.028L6.657,12.734Z" transform="translate(-4.257 61.731)" fill="#eee"/>
            <path id="Path_51" data-name="Path 51" d="M6.215,17.571h5.2v1.047h-5.2Z" transform="translate(-4.141 59.275)" fill="#eee"/>
            <path id="Path_52" data-name="Path 52" d="M7.8,8.838l4.711,2.227.437-.957L8.234,7.875Z" transform="translate(-4.946 64.199)" fill="#eee"/>
            <path id="Path_53" data-name="Path 53" d="M17.372,14.357h0Z" transform="translate(-9.807 60.907)" fill="#eee"/>
            <path id="Path_54" data-name="Path 54" d="M2,15.429v4.218h9.346V15.429h-1.04v3.163H3.04V15.429Z" transform="translate(-2 60.363)" fill="#eee"/>
            <path id="Path_55" data-name="Path 55" d="M10.453,4.225l3.991,3.382.662-.812L11.115,3.413Z" transform="translate(-6.293 66.465)" fill="#eee"/>
            <path id="Path_56" data-name="Path 56" d="M17.94,4.226,14.839,0l-.832.633,3.1,4.226Z" transform="translate(-8.098 68.199)" fill="#eee"/>
          </g>
          <text id="_fayeed-2" data-name="@fayeed" transform="translate(286.041 44.744)" fill="#eee" font-size="10" font-family="OpenSans, Open Sans"><tspan x="0" y="0">@fayeed</tspan></text>
        </g>
        <g id="Group_30" data-name="Group 30" transform="translate(10)">
          <g id="rss" transform="translate(347.085 36.214)">
            <circle id="Ellipse_7" data-name="Ellipse 7" cx="1.48" cy="1.48" r="1.48" transform="translate(0 7.396)" fill="#eee"/>
            <path id="Path_57" data-name="Path 57" d="M4.931,14.9H6.9A6.912,6.912,0,0,0,0,8V9.973A4.937,4.937,0,0,1,4.931,14.9Z" transform="translate(0 -4.548)" fill="#eee"/>
            <path id="Path_58" data-name="Path 58" d="M10.355,10.355A10.367,10.367,0,0,0,0,0V1.972a8.392,8.392,0,0,1,8.384,8.383Z" fill="#eee"/>
          </g>
          <text id="fayeed.dev_rss.xml" data-name="fayeed.dev/rss.xml" transform="translate(361.041 45.281)" fill="#eee" font-size="10" font-family="OpenSans, Open Sans"><tspan x="0" y="0">fayeed.dev/rss.xml</tspan></text>
        </g>
      </g>
      <text id="Title" transform="translate(60 49)" fill="#eee" font-size="28" font-family="OpenSans-Bold, Open Sans" font-weight="700"><tspan x="0" y="0">Hi, I am </tspan><tspan y="0" fill="#0058be">Fayeed Pawaskar</tspan><tspan y="0" xml:space="preserve"> -</tspan><tspan x="0" y="36">Code Tinkerer &amp; Software Engineer</tspan></text>
      <line id="Line_17" data-name="Line 17" x2="246" transform="translate(169.5 48.5)" fill="none" stroke="rgba(0,88,190,0.3)" stroke-width="6"/>
    </g>
  </g>
</svg>
